<?xml version="1.0" encoding="UTF-8" standalone="no"?><!DOCTYPE svg PUBLIC "-//W3C//DTD SVG 1.1//EN" "http://www.w3.org/Graphics/SVG/1.1/DTD/svg11.dtd"><svg width="100%" height="100%" viewBox="0 0 257 95" version="1.1" xmlns="http://www.w3.org/2000/svg" xmlns:xlink="http://www.w3.org/1999/xlink" xml:space="preserve" xmlns:serif="http://www.serif.com/" style="fill-rule:evenodd;clip-rule:evenodd;stroke-linejoin:round;stroke-miterlimit:2;"><g><path d="M47.2,94.4c25.893,0 47.2,-21.307 47.2,-47.2c0,-25.893 -21.307,-47.2 -47.2,-47.2c-25.893,0 -47.2,21.307 -47.2,47.2c0,25.893 21.307,47.2 47.2,47.2" style="fill:#93c01f;fill-rule:nonzero;"/><path d="M241.77,58.26c4.19,-0 14.2,-0.75 14.2,-15l-0,-19.87l-7.82,-0l-0,19c-0,9 -4.58,8.67 -6.38,8.67c-1.59,0 -6.42,0.29 -6.42,-8.67l-0,-19l-7.77,0l-0,19.88c-0,14.24 10,15 14.19,15m-39.5,-7.27l-0,-20.88l2.94,-0c6.73,-0 9.92,3.93 9.92,10.51c0,6.58 -3.44,10.36 -9.92,10.36l-2.94,0.01Zm4.84,6.72c8.31,0 16.08,-5.53 16.08,-17.08c-0,-11.55 -7.77,-17.24 -16.08,-17.24l-12.66,0l-0,34.31l12.66,0.01Zm-33.33,-14.35l14.4,0l-0,-6.58l-14.4,0l-0,-6.67l15.79,0l-0,-6.73l-23.61,0l-0,26.73c0.05,5.68 2.69,7.42 8.62,7.62l15,0l-0,-6.75l-13.25,0c-0.107,0.016 -0.215,0.023 -0.323,0.023c-1.229,0 -2.24,-1.011 -2.24,-2.24c-0,-0.108 0.007,-0.216 0.023,-0.323l-0.01,-5.08Zm-36.65,12.1c3.496,1.755 7.339,2.709 11.25,2.79c7.37,0 12.7,-2.24 13.35,-10c0.45,-7.33 -5.33,-9.42 -12.9,-11.86c-0.6,-0.2 -1.19,-0.45 -1.79,-0.65c-2.59,-0.79 -2.49,-2.69 -2.49,-2.69c0.05,-1.94 1.78,-3.44 5.78,-3.44c2.59,0 5.57,0.7 10.06,2.29l-0,-6.63c-3.116,-1.531 -6.529,-2.364 -10,-2.44c-8.82,0 -13.75,4.39 -13.75,10.36c-0,1 -0,7.33 8,9.77l1.89,0.69c4,1.25 7.77,2.15 7.32,4.74c-0.4,2.39 -2.29,3 -5.43,3c-3.906,-0.148 -7.739,-1.112 -11.25,-2.83l-0.04,6.9Zm-20.52,-12.1l14.39,0l0,-6.58l-14.39,0l0,-6.67l15.78,0l0,-6.73l-23.6,0l0,26.73c0,5.68 2.69,7.42 8.61,7.62l15,0l0,-6.75l-13.25,0c-0.111,0.017 -0.223,0.025 -0.335,0.025c-1.224,0 -2.23,-1.006 -2.23,-2.23c-0,-0.112 0.008,-0.224 0.025,-0.335l0,-5.08Z" style="fill:#1d1d1b;fill-rule:nonzero;"/><path d="M252.93,73.61c-1.27,-0 -2.29,-0.92 -2.29,-2.89c-0,-1.97 1,-2.91 2.29,-2.91c1.29,-0 2.27,1 2.27,2.91c-0,1.91 -1,2.89 -2.27,2.89m0,0.78c1.7,-0 3.1,-1.12 3.1,-3.67c0,-2.55 -1.4,-3.7 -3.1,-3.7c-1.7,-0 -3.12,1.15 -3.12,3.7c-0,2.55 1.4,3.67 3.12,3.67m-6.25,-6.49l-0,4.45c-0,1.56 0.67,2 2.29,2l0,-0.77c-1.41,-0 -1.46,-0.62 -1.46,-1.28l0,-4.38l1.44,-0l0,-0.7l-1.44,-0l0,-2.1l-0.83,0.3l0,1.81l-1.09,-0l0,0.7l1.09,-0.03Zm-6.16,6c0.517,0.289 1.098,0.447 1.69,0.46c1.31,-0 2.48,-0.11 2.59,-1.88c-0,-1.5 -1,-1.91 -2.28,-2.36l-0.6,-0.23c-0.385,-0.119 -0.662,-0.459 -0.7,-0.86c-0,-0.73 0.54,-1.24 1.68,-1.18c0.532,0.062 1.054,0.197 1.55,0.4l-0,-0.88c-0.488,-0.193 -0.999,-0.321 -1.52,-0.38c-1.74,-0.09 -2.52,0.75 -2.55,1.93c-0.015,0.803 0.498,1.527 1.26,1.78l0.63,0.23c0.92,0.32 1.7,0.64 1.69,1.5c-0.07,1 -0.86,1.11 -1.75,1.11c-0.602,-0.045 -1.183,-0.241 -1.69,-0.57l-0,0.93Zm-2.6,-9c0.064,0.223 0.269,0.377 0.5,0.377c0.231,0 0.436,-0.154 0.5,-0.377c-0,-0.31 -0.13,-0.51 -0.52,-0.51c-0.021,-0.003 -0.043,-0.005 -0.065,-0.005c-0.247,0 -0.45,0.203 -0.45,0.45c0,0.022 0.002,0.044 0.005,0.065m0.94,2.29l-0.84,-0l0,7l0.84,-0l-0,-7Zm-7,1.6c0.401,-0.554 1.036,-0.894 1.72,-0.92c0.72,-0 2.08,0.45 2.08,2.93c-0,1.82 -1.07,2.74 -2.12,2.74c-0.609,-0.028 -1.195,-0.241 -1.68,-0.61l-0,-4.14Zm-0.07,-1.62l-0.77,-0l0,10l0.84,-0l-0,-3.35c0.484,0.366 1.073,0.566 1.68,0.57c1.51,-0 2.95,-1.19 2.95,-3.58c-0,-3.18 -1.92,-3.77 -2.91,-3.77c-0.653,0.015 -1.274,0.293 -1.72,0.77l-0.07,-0.64Zm-5.43,6.44c-1.26,-0 -2.28,-0.92 -2.28,-2.89c0,-1.97 1,-2.91 2.28,-2.91c1.28,-0 2.27,1 2.27,2.91c-0,1.91 -1,2.89 -2.27,2.89m-0,0.78c1.71,-0 3.1,-1.12 3.1,-3.67c0,-2.55 -1.39,-3.7 -3.1,-3.7c-1.71,-0 -3.11,1.15 -3.11,3.7c-0,2.55 1.39,3.67 3.11,3.67m-5.6,-9.48c0.064,0.223 0.269,0.377 0.5,0.377c0.231,0 0.436,-0.154 0.5,-0.377c0,-0.31 -0.13,-0.51 -0.52,-0.51c-0.021,-0.003 -0.043,-0.005 -0.065,-0.005c-0.247,0 -0.45,0.203 -0.45,0.45c0,0.022 0.002,0.044 0.005,0.065m0.94,2.29l-0.84,-0l0,7l0.84,-0l-0,-7Zm-4.38,0.7l-0,4.45c-0,1.56 0.67,2 2.29,2l0,-0.77c-1.42,-0 -1.46,-0.62 -1.46,-1.28l-0,-4.38l1.44,-0l-0,-0.7l-1.44,-0l-0,-2.1l-0.83,0.3l0,1.81l-1.09,-0l-0,0.7l1.09,-0.03Zm-4,-0l0,4.45c0,1.56 0.67,2 2.28,2l0,-0.77c-1.41,-0 -1.45,-0.62 -1.45,-1.28l0,-4.38l1.44,-0l0,-0.7l-1.44,-0l0,-2.1l-0.83,0.3l0,1.81l-1.09,-0l0,0.7l1.09,-0.03Zm-3.09,4.92c-0.564,0.464 -1.27,0.721 -2,0.73c-0.94,-0 -1.26,-0.56 -1.26,-1.33c0,-0.77 0.7,-1.43 1.84,-1.43c0.479,-0.012 0.957,0.063 1.41,0.22l0.01,1.81Zm0.1,1.43l0.73,-0l0,-4.21c0,-2.32 -1.06,-3 -2.24,-3c-0.782,0.009 -1.549,0.215 -2.23,0.6l0,0.81c0.685,-0.374 1.45,-0.576 2.23,-0.59c0.73,-0 1.41,0.54 1.41,2.2l0,0.19c-0.449,-0.129 -0.913,-0.193 -1.38,-0.19c-1.63,-0 -2.7,0.75 -2.7,2.18c0,1.27 0.53,2.17 2.09,2.17c0.731,-0.034 1.432,-0.3 2,-0.76l0.09,0.6Zm-9.9,-5.39c0.412,-0.634 1.124,-1.012 1.88,-1c0.81,-0 1.61,0.32 1.61,2.47l0,3.94l0.85,-0l0,-3.94c0,-2.89 -1.21,-3.27 -2.46,-3.27c-0.84,-0.055 -1.66,0.281 -2.22,0.91c-0.443,-0.686 -1.255,-1.045 -2.06,-0.91c-0.691,0.04 -1.351,0.303 -1.88,0.75l-0.07,-0.59l-0.69,-0l0,7l0.83,-0l0,-5.51c0.487,-0.529 1.162,-0.849 1.88,-0.89c0.87,-0 1.55,0.32 1.55,1.18l0,5.22l0.85,-0l-0.07,-5.36Zm-11.27,-0c0.411,-0.635 1.123,-1.014 1.88,-1c0.81,-0 1.61,0.32 1.61,2.47l-0,3.94l0.85,-0l0,-3.94c0,-2.89 -1.21,-3.27 -2.46,-3.27c-0.84,-0.057 -1.661,0.279 -2.22,0.91c-0.448,-0.685 -1.262,-1.043 -2.07,-0.91c-0.688,0.042 -1.344,0.305 -1.87,0.75l-0.08,-0.59l-0.75,-0l-0,7l0.83,-0l0,-5.51c0.485,-0.527 1.155,-0.846 1.87,-0.89c0.88,-0 1.56,0.32 1.56,1.18l0,5.22l0.85,-0l-0,-5.36Zm-7.78,4c-0.564,0.464 -1.27,0.721 -2,0.73c-0.94,-0 -1.26,-0.56 -1.26,-1.33c0,-0.77 0.7,-1.43 1.84,-1.43c0.479,-0.012 0.957,0.063 1.41,0.22l0.01,1.81Zm0.1,1.43l0.73,-0l0,-4.21c0,-2.32 -1.06,-3 -2.24,-3c-0.782,0.009 -1.549,0.215 -2.23,0.6l-0,0.81c0.685,-0.374 1.45,-0.576 2.23,-0.59c0.73,-0 1.41,0.54 1.41,2.2l-0,0.19c-0.449,-0.129 -0.913,-0.193 -1.38,-0.19c-1.63,-0 -2.7,0.75 -2.7,2.18c-0,1.27 0.53,2.17 2.09,2.17c0.731,-0.034 1.432,-0.3 2,-0.76l0.09,0.6Zm-12.73,-0l0,-5.64c0.523,-0.422 1.16,-0.68 1.83,-0.74c0.91,-0 1.6,0.51 1.6,2l0,4.34l0.84,-0l-0,-4.34c-0,-2.17 -1.05,-2.87 -2.44,-2.87c-0.672,0.054 -1.314,0.308 -1.84,0.73l-0.07,-0.57l-0.75,-0l0,7l0.83,0.09Zm-5.47,-0.64c-1.27,-0 -2.29,-0.92 -2.29,-2.89c-0,-1.97 1,-2.91 2.29,-2.91c1.29,-0 2.27,1 2.27,2.91c-0,1.91 -1,2.89 -2.27,2.89m-0,0.78c1.7,-0 3.1,-1.12 3.1,-3.67c-0,-2.55 -1.4,-3.7 -3.1,-3.7c-1.7,-0 -3.12,1.15 -3.12,3.7c-0,2.55 1.4,3.67 3.12,3.67m-8.55,-7.19l-0.9,-0l2.44,7l0.73,-0l2.45,-7l-0.89,-0l-1.92,5.62l-1.91,-5.62Zm-2.74,5.62c-0.564,0.464 -1.27,0.721 -2,0.73c-0.93,-0 -1.26,-0.56 -1.26,-1.33c-0,-0.77 0.7,-1.43 1.84,-1.43c0.479,-0.012 0.957,0.063 1.41,0.22l0.01,1.81Zm0.1,1.43l0.73,-0l-0,-4.21c-0,-2.32 -1.06,-3 -2.24,-3c-0.782,0.009 -1.549,0.215 -2.23,0.6l-0,0.81c0.685,-0.373 1.45,-0.575 2.23,-0.59c0.73,-0 1.41,0.54 1.41,2.2l-0,0.19c-0.449,-0.129 -0.913,-0.193 -1.38,-0.19c-1.63,-0 -2.7,0.75 -2.7,2.18c-0,1.27 0.53,2.17 2.09,2.17c0.731,-0.034 1.432,-0.3 2,-0.76l0.09,0.6Zm-11,-1.59l-0,1c0.817,0.412 1.707,0.66 2.62,0.73c1.75,-0 3,-0.62 3.1,-2.65c0.08,-1.8 -1.31,-2.39 -3.2,-3.09l-0.48,-0.17c-0.707,-0.24 -1.189,-0.903 -1.2,-1.65c0.05,-1.16 0.79,-1.9 2.35,-1.9c0.751,0.069 1.485,0.265 2.17,0.58l-0,-1c-0.691,-0.285 -1.424,-0.457 -2.17,-0.51c-2.13,-0 -3.18,1.06 -3.22,2.72c-0.019,1.151 0.717,2.188 1.81,2.55l0.52,0.19c1.38,0.54 2.53,1.08 2.56,2.16c-0.07,1.29 -1,1.86 -2.24,1.86c-0.785,-0.068 -1.551,-0.278 -2.26,-0.62l-0.36,-0.2Zm-1.15,-2.93l-4,-0l-0,0.82l4,-0l-0,-0.82Zm-7.75,-4.72c-0.001,0.011 -0.001,0.021 -0.001,0.032c-0,0.258 0.212,0.47 0.47,0.47c0.014,-0 0.027,-0.001 0.041,-0.002c0.28,-0 0.51,-0.23 0.51,-0.51c-0,-0.28 -0.23,-0.51 -0.51,-0.51c-0.28,0 -0.51,0.23 -0.51,0.51c-0,0.003 -0,0.007 -0,0.01m-1.46,-0c-0.001,0.014 -0.002,0.029 -0.002,0.043c-0,0.252 0.208,0.46 0.46,0.46c0.017,-0 0.035,-0.001 0.052,-0.003c0.033,0.007 0.067,0.01 0.1,0.01c0.28,-0 0.51,-0.23 0.51,-0.51c0,-0.28 -0.23,-0.51 -0.51,-0.51c-0.033,-0 -0.067,0.003 -0.1,0.01c-0.022,-0.003 -0.044,-0.005 -0.066,-0.005c-0.247,0 -0.45,0.203 -0.45,0.45c-0,0.025 0.002,0.05 0.006,0.075m2.68,6c-0.453,-0.157 -0.931,-0.232 -1.41,-0.22c-1.13,-0 -1.83,0.54 -1.83,1.43c-0,0.89 0.32,1.33 1.25,1.33c0.73,-0.009 1.436,-0.266 2,-0.73l-0.01,-1.81Zm-0,2.62c-0.568,0.46 -1.269,0.726 -2,0.76c-1.56,-0 -2.08,-0.9 -2.08,-2.17c-0,-1.43 1.06,-2.18 2.69,-2.18c0.467,-0.003 0.931,0.061 1.38,0.19l-0,-0.19c-0,-1.66 -0.68,-2.2 -1.41,-2.2c-0.78,0.015 -1.545,0.217 -2.23,0.59l-0,-0.81c0.681,-0.385 1.448,-0.591 2.23,-0.6c1.18,-0 2.24,0.7 2.24,3l-0,4.21l-0.72,-0l-0.1,-0.6Zm-4.73,-0.16c-1,-0 -1.46,-0.23 -1.46,-1.13l-0,-8.49l-0.83,-0l-0,8.43c-0,1.57 0.66,2 2.29,2l-0,-0.81Zm-6.54,-5.59c1.08,-0 1.82,1 2,2.45l-4,-0c0.17,-1.47 1.06,-2.45 2,-2.45m2.84,3.19c-0,-2.49 -1.06,-4 -2.84,-4c-1.47,-0 -2.84,1.29 -2.84,3.62c-0,2.62 1.3,3.73 3,3.73c0.748,-0.027 1.49,-0.145 2.21,-0.35l-0,-0.81c-0.719,0.208 -1.462,0.326 -2.21,0.35c-1.09,-0 -2,-0.86 -2.11,-2.51l4.79,-0.03Zm-8.81,-3.17l-0,4.45c-0,1.56 0.67,2 2.29,2l-0,-0.77c-1.42,-0 -1.46,-0.62 -1.46,-1.28l-0,-4.38l1.44,-0l-0,-0.7l-1.44,-0l-0,-2.16l-0.83,0.3l-0,1.81l-1.09,-0l-0,0.7l1.09,0.03Zm-6.26,1.69l3.95,-0l-0,-0.86l-3.95,-0l-0,-3.73l4.22,-0l-0,-0.86l-5.08,-0l-0,8.23c-0,1.36 0.55,1.79 1.81,1.82l3.27,-0l-0,-0.86l-3.14,-0c-0.67,-0 -0.94,-0.25 -0.95,-1l-0.13,-2.74Z" style="fill:#1d1d1b;fill-rule:nonzero;"/><path d="M36.64,17.59c4.302,-4.3 11.378,-4.3 15.68,-0l10.37,10.37c4.3,4.302 4.3,11.378 0,15.68l-11,11c-0.993,0.993 -2.627,0.993 -3.62,0l-8.44,-8.44c-0.993,-0.993 -0.993,-2.627 -0,-3.62l5.06,-5.06c0.993,-0.993 2.627,-0.993 3.62,-0l1.57,1.56l3.26,-3.25l-5.64,-5.71c-1.652,-1.631 -4.348,-1.631 -6,-0l-11.37,11.35c-1.631,1.652 -1.631,4.348 0,6l16.77,16.79c1.65,1.637 4.35,1.637 6,-0l15.22,-15.14c4.302,-4.3 11.378,-4.3 15.68,-0l0.84,0.84l-26.89,26.84c-4.302,4.3 -11.378,4.3 -15.68,-0l-32.32,-32.32l26.89,-26.89Z" style="fill:#fff;fill-rule:nonzero;"/></g></svg>